<svg xmlns="http://www.w3.org/2000/svg" viewBox="0 0 144 144" width="144" height="144" role="img" aria-labelledby="title desc">
  <title id="title">StellarTrail app icon</title>
  <desc id="desc">A night mountain trail with a golden guiding star, layered teal peaks, pine silhouettes, and a warm winding path.</desc>
  <defs>
    <clipPath id="rounded"><rect width="144" height="144" rx="20" ry="20"/></clipPath>
    <radialGradient id="starGlow" cx="50%" cy="50%" r="50%">
      <stop offset="0" stop-color="#ffdc5a" stop-opacity="0.36"/>
      <stop offset="1" stop-color="#ffdc5a" stop-opacity="0"/>
    </radialGradient>
  </defs>
  <g clip-path="url(#rounded)">
    <rect id="night-sky" width="144" height="144" fill="#0B2435"/>
    <g fill="#6B8A94" opacity="0.95">
      <circle cx="27" cy="18" r="1.1"/><circle cx="45" cy="17" r="0.9"/><circle cx="28" cy="51" r="1.1"/><circle cx="125" cy="33" r="0.8"/><circle cx="96" cy="19" r="0.8"/>
    </g>
    <g fill="#E6DFA0"><circle cx="111" cy="22" r="1.3"/><circle cx="75" cy="50" r="1.1"/></g>
    <circle id="compass-star" cx="84" cy="34" r="20" fill="url(#starGlow)"/>
    <circle cx="84" cy="34" r="12" fill="#34444A" opacity="0.82"/>
    <polygon points="84,22 86.68,30.49 92.49,25.51 87.51,31.32 96,34 87.51,36.68 92.49,42.49 86.68,37.51 84,46 81.32,37.51 75.51,42.49 80.49,36.68 72,34 80.49,31.32 75.51,25.51 81.32,30.49" fill="#FFD94A"/>
    <g stroke="#FFF3A3" stroke-width="1.4" stroke-linecap="round"><path d="M84 22v24"/><path d="M72 34h24"/><path d="M76 26l16 16" stroke-width="1"/><path d="M92 26L76 42" stroke-width="1"/></g>
    <circle cx="84" cy="34" r="3.2" fill="#FFF3A3"/>
    <path id="mountains" d="M0 107L22 88L38 100L58 57L90 104L110 66L144 105V144H0Z" fill="#4FA0A1"/>
    <path d="M36 88L58 57L90 104L65 84Z" fill="#1E5964"/>
    <path d="M50 72L58 57L72 78L61 73Z" fill="#8AD6C8"/>
    <path d="M96 82L110 66L130 91L115 83Z" fill="#78C7BE"/>
    <path d="M0 110L18 82L40 103L55 76L78 111L91 104L112 82L144 114V144H0Z" fill="#156D6F"/>
    <path d="M0 120L18 92L42 116L62 88L86 123L0 144Z" fill="#084750"/>
    <path d="M91 112L112 82L144 116V144H88Z" fill="#09525B"/>
    <path d="M0 126L26 96L52 126L64 115L76 144H0Z" fill="#063A42"/>
    <path d="M95 118L123 92L144 119V144H88Z" fill="#063A42"/>
    <path d="M0 136L16 110L38 132L0 144Z" fill="#042C33"/>
    <path d="M118 116L138 102L144 112V144H106Z" fill="#042C33"/>
    <g fill="#F6E58D"><circle cx="70" cy="70" r="1.8"/><circle cx="75" cy="78" r="1.5"/><circle cx="73" cy="84" r="1.25"/></g>
    <path id="trail" d="M70 86C77 91 83 99 81 108C77 120 73 132 75 144H62C63 132 67 119 72 106C75 98 69 89 70 86Z" fill="#9B6A2E"/>
    <path d="M70 87C75 92 79 100 77 109C73 121 68 134 69 144H64C65 134 69 121 73 108C75 99 69 90 70 87Z" fill="#FFE29A"/>
    <path d="M72 90C74 98 72 108 68 123C66 136 66 144 66 144" fill="none" stroke="#FFF4BE" stroke-width="1.5" stroke-linecap="round"/>
    <rect y="139" width="144" height="5" fill="#05242B"/>
    <g fill="#042C33">
      <path d="M18 113L9 128H27Z"/><path d="M18 121L7 133H29Z"/><path d="M18 129L8 138H28Z"/><rect x="17" y="130" width="2" height="8" rx="1"/>
      <path d="M29 123L23 132H35Z"/><path d="M29 128L21 136H37Z"/><rect x="28" y="132" width="2" height="6" rx="1"/>
      <path d="M125 117L117 130H133Z"/><path d="M125 124L115 135H135Z"/><path d="M125 131L116 138H134Z"/><rect x="124" y="131" width="2" height="7" rx="1"/>
      <path d="M136 124L130 132H142Z"/><path d="M136 129L128 138H144Z"/><rect x="135" y="132" width="2" height="6" rx="1"/>
    </g>
  </g>
</svg>
